<svg
  xmlns="http://www.w3.org/2000/svg"
  viewBox="0 0 77 58"
  fill="white"
  className="w-10 h-10 text-pink-500"
>
  <path d="M77,29.7c-0.3,1.3-1.2,2.2-2.1,3.1c-7.8,7.8-15.6,15.5-23.3,23.3c-1.2,1.2-2.7,1.8-4.4,1.2c-0.6-0.2-1.2-0.6-1.7-1.1
    C37.5,48.1,29.4,40.1,21.3,32c-2.1-2.1-1.6-5.3,1-6.6c1.4-0.7,2.8-0.5,4,0.4c0.3,0.2,0.6,0.5,0.8,0.7c6.9,6.9,13.9,13.9,20.8,20.8
    c0.2,0.2,0.3,0.3,0.5,0.6c0.2-0.2,0.4-0.3,0.5-0.5c7-7,14-14,21-21c1.2-1.2,2.7-1.7,4.3-1.2c1.2,0.4,2.1,1.3,2.5,2.5
    c0.1,0.2,0.1,0.3,0.2,0.5V29.7z"/>
  <path d="M0,27.8c0.3-1.3,1.2-2.2,2.1-3.1C9.9,17,17.6,9.2,25.4,1.4c1.2-1.2,2.7-1.8,4.4-1.2c0.6,0.2,1.2,0.6,1.7,1.1
    c8.1,8.1,16.2,16.1,24.2,24.2c2.1,2.1,1.6,5.3-1,6.6c-1.4,0.7-2.8,0.5-4-0.4c-0.3-0.2-0.6-0.5-0.8-0.7C42.9,24,35.9,17.1,29,10.2
    c-0.2-0.2-0.3-0.3-0.5-0.6c-0.2,0.2-0.4,0.3-0.5,0.5c-7,7-14,14-21,21c-1.2,1.2-2.7,1.7-4.3,1.2c-1.2-0.4-2.1-1.3-2.5-2.5
    c-0.1-0.2-0.1-0.3-0.2-0.5L0,27.8z"/>
</svg>